<svg width="27" height="27" viewBox="0 0 27 27" fill="none" xmlns="http://www.w3.org/2000/svg">
<path d="M0 13.5C-2.64175e-08 11.7272 0.349188 9.97167 1.02763 8.33377C1.70606 6.69588 2.70047 5.20765 3.95406 3.95406C5.20765 2.70047 6.69588 1.70606 8.33377 1.02763C9.97167 0.349188 11.7272 0 13.5 0C15.2728 0 17.0283 0.349188 18.6662 1.02763C20.3041 1.70606 21.7924 2.70047 23.0459 3.95406C24.2995 5.20765 25.2939 6.69588 25.9724 8.33377C26.6508 9.97167 27 11.7272 27 13.5C27 17.0804 25.5777 20.5142 23.0459 23.0459C20.5142 25.5777 17.0804 27 13.5 27C9.91958 27 6.4858 25.5777 3.95406 23.0459C1.42232 20.5142 5.33525e-08 17.0804 0 13.5ZM13.5 6.75C13.2016 6.75 12.9155 6.86853 12.7045 7.0795C12.4935 7.29048 12.375 7.57663 12.375 7.875V12.375H7.875C7.57663 12.375 7.29048 12.4935 7.0795 12.7045C6.86853 12.9155 6.75 13.2016 6.75 13.5C6.75 13.7984 6.86853 14.0845 7.0795 14.2955C7.29048 14.5065 7.57663 14.625 7.875 14.625H12.375V19.125C12.375 19.4234 12.4935 19.7095 12.7045 19.9205C12.9155 20.1315 13.2016 20.25 13.5 20.25C13.7984 20.25 14.0845 20.1315 14.2955 19.9205C14.5065 19.7095 14.625 19.4234 14.625 19.125V14.625H19.125C19.4234 14.625 19.7095 14.5065 19.9205 14.2955C20.1315 14.0845 20.25 13.7984 20.25 13.5C20.25 13.2016 20.1315 12.9155 19.9205 12.7045C19.7095 12.4935 19.4234 12.375 19.125 12.375H14.625V7.875C14.625 7.57663 14.5065 7.29048 14.2955 7.0795C14.0845 6.86853 13.7984 6.75 13.5 6.75Z" fill="#ABBFF5"/>
</svg>
