<svg width="30" height="30" viewBox="0 0 30 30" fill="none" xmlns="http://www.w3.org/2000/svg">
<path d="M14.6875 2.5H10.3125C9.6207 2.50002 8.95318 2.75501 8.43755 3.21621C7.92193 3.67742 7.59437 4.31249 7.5175 5H5.3125C4.56658 5 3.85121 5.29632 3.32376 5.82376C2.79632 6.35121 2.5 7.06658 2.5 7.8125V24.6875C2.5 25.4334 2.79632 26.1488 3.32376 26.6762C3.85121 27.2037 4.56658 27.5 5.3125 27.5H16.0125C14.5584 25.9887 13.7473 23.9722 13.75 21.875C13.75 20.3188 14.1875 18.865 14.9463 17.63L11.9125 20.6625C11.7367 20.8381 11.4984 20.9367 11.25 20.9367C11.0016 20.9367 10.7633 20.8381 10.5875 20.6625L7.4625 17.5375C7.37039 17.4517 7.29651 17.3482 7.24527 17.2332C7.19403 17.1182 7.16648 16.994 7.16426 16.8682C7.16204 16.7423 7.1852 16.6172 7.23235 16.5005C7.2795 16.3838 7.34968 16.2777 7.4387 16.1887C7.52773 16.0997 7.63377 16.0295 7.7505 15.9823C7.86724 15.9352 7.99227 15.912 8.11815 15.9143C8.24403 15.9165 8.36817 15.944 8.48317 15.9953C8.59817 16.0465 8.70167 16.1204 8.7875 16.2125L11.25 18.675L17.4625 12.4625C17.5483 12.3704 17.6518 12.2965 17.7668 12.2453C17.8818 12.194 18.006 12.1665 18.1318 12.1643C18.2577 12.162 18.3828 12.1852 18.4995 12.2323C18.6162 12.2795 18.7223 12.3497 18.8113 12.4387C18.9003 12.5277 18.9705 12.6338 19.0177 12.7505C19.0648 12.8672 19.088 12.9923 19.0857 13.1182C19.0835 13.244 19.056 13.3682 19.0047 13.4832C18.9535 13.5982 18.8796 13.7017 18.7875 13.7875L17.63 14.9463C19.0882 14.0494 20.7934 13.6385 22.5 13.7725V7.8125C22.5 7.06658 22.2037 6.35121 21.6762 5.82376C21.1488 5.29632 20.4334 5 19.6875 5H17.4825C17.4056 4.31249 17.0781 3.67742 16.5624 3.21621C16.0468 2.75501 15.3793 2.50002 14.6875 2.5ZM10.3125 4.375H14.6875C14.9361 4.375 15.1746 4.47377 15.3504 4.64959C15.5262 4.8254 15.625 5.06386 15.625 5.3125C15.625 5.56114 15.5262 5.7996 15.3504 5.97541C15.1746 6.15123 14.9361 6.25 14.6875 6.25H10.3125C10.0639 6.25 9.8254 6.15123 9.64959 5.97541C9.47377 5.7996 9.375 5.56114 9.375 5.3125C9.375 5.06386 9.47377 4.8254 9.64959 4.64959C9.8254 4.47377 10.0639 4.375 10.3125 4.375ZM28.75 21.875C28.75 20.0516 28.0257 18.303 26.7364 17.0136C25.447 15.7243 23.6984 15 21.875 15C20.0516 15 18.303 15.7243 17.0136 17.0136C15.7243 18.303 15 20.0516 15 21.875C15 23.6984 15.7243 25.447 17.0136 26.7364C18.303 28.0257 20.0516 28.75 21.875 28.75C23.6984 28.75 25.447 28.0257 26.7364 26.7364C28.0257 25.447 28.75 23.6984 28.75 21.875ZM22.5 22.5L22.5013 25.6288C22.5013 25.7945 22.4354 25.9535 22.3182 26.0707C22.201 26.1879 22.042 26.2538 21.8763 26.2538C21.7105 26.2538 21.5515 26.1879 21.4343 26.0707C21.3171 25.9535 21.2513 25.7945 21.2513 25.6288V22.5H18.12C17.9542 22.5 17.7953 22.4342 17.6781 22.3169C17.5608 22.1997 17.495 22.0408 17.495 21.875C17.495 21.7092 17.5608 21.5503 17.6781 21.4331C17.7953 21.3158 17.9542 21.25 18.12 21.25H21.25V18.125C21.25 17.9592 21.3158 17.8003 21.4331 17.6831C21.5503 17.5658 21.7092 17.5 21.875 17.5C22.0408 17.5 22.1997 17.5658 22.3169 17.6831C22.4342 17.8003 22.5 17.9592 22.5 18.125V21.25H25.6213C25.787 21.25 25.946 21.3158 26.0632 21.4331C26.1804 21.5503 26.2463 21.7092 26.2463 21.875C26.2463 22.0408 26.1804 22.1997 26.0632 22.3169C25.946 22.4342 25.787 22.5 25.6213 22.5H22.5Z" fill="white"/>
</svg>
