<svg width="30" height="30" viewBox="0 0 30 30" fill="none" xmlns="http://www.w3.org/2000/svg">
<path d="M11.6375 8.3875C11.5216 8.50314 11.4297 8.6405 11.367 8.79172C11.3042 8.94293 11.2719 9.10504 11.2719 9.26875C11.2719 9.43246 11.3042 9.59456 11.367 9.74578C11.4297 9.89699 11.5216 10.0344 11.6375 10.15L16.4875 15L11.6375 19.85C11.4038 20.0837 11.2725 20.4007 11.2725 20.7312C11.2725 21.0618 11.4038 21.3788 11.6375 21.6125C11.8712 21.8462 12.1882 21.9775 12.5187 21.9775C12.8493 21.9775 13.1663 21.8462 13.4 21.6125L19.1375 15.875C19.2534 15.7594 19.3453 15.622 19.408 15.4708C19.4708 15.3196 19.5031 15.1575 19.5031 14.9937C19.5031 14.83 19.4708 14.6679 19.408 14.5167C19.3453 14.3655 19.2534 14.2281 19.1375 14.1125L13.4 8.375C12.925 7.9 12.125 7.9 11.6375 8.3875Z" fill="#4E4E4E"/>
</svg>
