<svg width="10" height="17" viewBox="0 0 10 17" fill="none" xmlns="http://www.w3.org/2000/svg">
<path d="M9.55589 16.5106C9.69667 16.3701 9.80836 16.2032 9.88457 16.0195C9.96077 15.8358 10 15.6388 10 15.4399C10 15.2411 9.96077 15.0441 9.88457 14.8604C9.80836 14.6767 9.69667 14.5098 9.55589 14.3693L3.66361 8.47703L9.55589 2.58475C9.83984 2.3008 9.99936 1.91569 9.99936 1.51412C9.99936 1.11255 9.83984 0.727434 9.55589 0.443483C9.27194 0.159534 8.88682 1.52588e-05 8.48525 1.52588e-05C8.08369 1.52588e-05 7.69857 0.159534 7.41462 0.443483L0.444113 7.41399C0.30333 7.55449 0.191639 7.72137 0.115432 7.90508C0.0392246 8.08879 0 8.28573 0 8.48463C0 8.68352 0.0392246 8.88046 0.115432 9.06417C0.191639 9.24789 0.30333 9.41477 0.444113 9.55526L7.41462 16.5258C7.9917 17.1028 8.96362 17.1028 9.55589 16.5106Z" fill="#4E4E4E"/>
</svg>
