<svg width="15" height="15" viewBox="0 0 15 15" fill="none" xmlns="http://www.w3.org/2000/svg">
<path d="M1.64062 12.8906C1.64062 13.1499 1.8501 13.3594 2.10938 13.3594H12.8906C13.1499 13.3594 13.3594 13.1499 13.3594 12.8906V6.73828H1.64062V12.8906ZM12.8906 2.69531H10.4297V1.75781C10.4297 1.69336 10.377 1.64062 10.3125 1.64062H9.49219C9.42773 1.64062 9.375 1.69336 9.375 1.75781V2.69531H5.625V1.75781C5.625 1.69336 5.57227 1.64062 5.50781 1.64062H4.6875C4.62305 1.64062 4.57031 1.69336 4.57031 1.75781V2.69531H2.10938C1.8501 2.69531 1.64062 2.90479 1.64062 3.16406V5.74219H13.3594V3.16406C13.3594 2.90479 13.1499 2.69531 12.8906 2.69531Z" fill="black" fill-opacity="0.43"/>
</svg>
