<svg width="15" height="12" viewBox="0 0 15 12" fill="none" xmlns="http://www.w3.org/2000/svg">
<path d="M12.1975 0.697507C12.4441 0.462813 12.7721 0.333064 13.1125 0.335639C13.4528 0.338215 13.7789 0.472913 14.0218 0.711311C14.2648 0.949708 14.4056 1.27316 14.4146 1.61341C14.4236 1.95366 14.3 2.28411 14.07 2.53501L7.08753 11.2675C6.96747 11.3968 6.82256 11.5006 6.66146 11.5726C6.50037 11.6447 6.32641 11.6835 6.14997 11.6868C5.97354 11.69 5.79825 11.6577 5.63461 11.5917C5.47096 11.5256 5.3223 11.4273 5.19753 11.3025L0.567032 6.67201C0.43808 6.55185 0.334651 6.40695 0.262915 6.24595C0.191179 6.08495 0.152606 5.91115 0.149496 5.73492C0.146387 5.55869 0.178805 5.38364 0.244817 5.22021C0.310829 5.05678 0.409082 4.90832 0.533715 4.78369C0.658348 4.65906 0.806807 4.5608 0.970236 4.49479C1.13367 4.42878 1.30872 4.39636 1.48495 4.39947C1.66118 4.40258 1.83498 4.44115 1.99597 4.51289C2.15697 4.58463 2.30187 4.68806 2.42203 4.81701L6.08653 8.47976L12.1643 0.736007C12.1752 0.722534 12.1869 0.70968 12.1993 0.697507H12.1975Z" fill="#102661"/>
</svg>
