<svg width="30" height="30" viewBox="0 0 30 30" fill="none" xmlns="http://www.w3.org/2000/svg">
<path d="M16.7675 15L20.3037 11.465C20.4199 11.3489 20.512 11.211 20.5749 11.0592C20.6377 10.9075 20.6701 10.7449 20.6701 10.5806C20.6701 10.4164 20.6377 10.2537 20.5749 10.102C20.512 9.95026 20.4199 9.81239 20.3037 9.69625C20.1876 9.58011 20.0497 9.48799 19.898 9.42513C19.7463 9.36228 19.5836 9.32993 19.4194 9.32993C19.2551 9.32993 19.0925 9.36228 18.9408 9.42513C18.789 9.48799 18.6511 9.58011 18.535 9.69625L15 13.2325L11.465 9.69625C11.2304 9.4617 10.9123 9.32993 10.5806 9.32993C10.2489 9.32993 9.9308 9.4617 9.69625 9.69625C9.4617 9.9308 9.32993 10.2489 9.32993 10.5806C9.32993 10.7449 9.36228 10.9075 9.42513 11.0592C9.48799 11.211 9.58011 11.3489 9.69625 11.465L13.2325 15L9.69625 18.535C9.4617 18.7696 9.32993 19.0877 9.32993 19.4194C9.32993 19.7511 9.4617 20.0692 9.69625 20.3037C9.9308 20.5383 10.2489 20.6701 10.5806 20.6701C10.9123 20.6701 11.2304 20.5383 11.465 20.3037L15 16.7675L18.535 20.3037C18.7696 20.5383 19.0877 20.6701 19.4194 20.6701C19.7511 20.6701 20.0692 20.5383 20.3037 20.3037C20.5383 20.0692 20.6701 19.7511 20.6701 19.4194C20.6701 19.0877 20.5383 18.7696 20.3037 18.535L16.7675 15ZM15 27.5C8.09625 27.5 2.5 21.9037 2.5 15C2.5 8.09625 8.09625 2.5 15 2.5C21.9037 2.5 27.5 8.09625 27.5 15C27.5 21.9037 21.9037 27.5 15 27.5Z" fill="#4E4E4E"/>
</svg>
