<svg width="14" height="14" viewBox="0 0 20 20" fill="none" xmlns="http://www.w3.org/2000/svg">
<path d="M0.292615 10.7062L9.27061 19.7062C9.65961 20.0962 10.2956 20.0972 10.6846 19.7082L19.7056 10.7082C19.7987 10.6153 19.8726 10.505 19.923 10.3835C19.9735 10.262 19.9994 10.1317 19.9994 10.0002C19.9994 9.86867 19.9735 9.73843 19.923 9.61694C19.8726 9.49545 19.7987 9.38509 19.7056 9.2922L10.6846 0.292203C10.5917 0.199388 10.4814 0.125806 10.36 0.0756667C10.2386 0.0255275 10.1085 -0.000184762 9.9772 9.99393e-07C9.84587 0.000186761 9.71586 0.026267 9.59461 0.0767494C9.47337 0.127232 9.36327 0.201126 9.27061 0.294203L0.292615 9.2942C0.19985 9.38689 0.12626 9.49694 0.0760515 9.61808C0.0258429 9.73922 0 9.86907 0 10.0002C0 10.1313 0.0258429 10.2612 0.0760515 10.3823C0.12626 10.5035 0.19985 10.6135 0.292615 10.7062V10.7062ZM6.99961 8.0002H11.9996V6.0002L14.9996 9.0002L11.9996 12.0002V10.0002H8.99961V14.0002H6.99961V8.0002Z" fill="#4E4E4E"/>
</svg>
