<svg width="8" height="5" viewBox="0 0 8 5" fill="none" xmlns="http://www.w3.org/2000/svg">
<path d="M3.15334 4.4625L0.155844 1.03625C-0.197906 0.633125 0.0895942 2.29816e-07 0.626469 2.29816e-07H6.62147C6.74162 -0.000102787 6.85926 0.0344299 6.96029 0.0994631C7.06132 0.164496 7.14147 0.257273 7.19113 0.366683C7.24079 0.476093 7.25786 0.597499 7.24029 0.716361C7.22273 0.835223 7.17128 0.946503 7.09209 1.03688L4.09459 4.46187C4.03593 4.52901 3.96359 4.58281 3.88241 4.61967C3.80124 4.65654 3.71312 4.67561 3.62397 4.67561C3.53482 4.67561 3.4467 4.65654 3.36553 4.61967C3.28435 4.58281 3.21201 4.52901 3.15334 4.46187V4.4625Z" fill="#4E4E4E"/>
</svg>
