<svg width="28" height="28" viewBox="0 0 28 28" fill="none" xmlns="http://www.w3.org/2000/svg">
<path d="M14 1.75V7.875C14 8.57059 14.2761 9.23774 14.7676 9.72992C15.2591 10.2221 15.9259 10.4991 16.6215 10.5H22.7465V12.3112C21.8377 12.4686 21.0001 12.904 20.349 13.5573L12.8468 21.0595C11.9992 21.9066 11.398 22.9682 11.1073 24.1307L10.5788 26.2465H7.875C7.17881 26.2465 6.51113 25.9699 6.01884 25.4777C5.52656 24.9854 5.25 24.3177 5.25 23.6215V4.375C5.25 3.67881 5.52656 3.01113 6.01884 2.51884C6.51113 2.02656 7.17881 1.75 7.875 1.75H14ZM22.7465 14.105C22.323 14.2293 21.924 14.4603 21.588 14.7945L14.0875 22.295C13.465 22.9179 13.0234 23.6982 12.81 24.5525L12.2798 26.6718C12.2352 26.8503 12.2375 27.0374 12.2865 27.2148C12.3356 27.3921 12.4296 27.5539 12.5596 27.6842C12.6896 27.8145 12.851 27.909 13.0283 27.9585C13.2055 28.008 13.3926 28.0109 13.5713 27.9667L15.6905 27.4365C16.5449 27.2231 17.3252 26.7816 17.948 26.159L25.452 18.655C25.8819 18.226 26.1565 17.6659 26.2323 17.0633C26.3081 16.4607 26.1808 15.8501 25.8705 15.328C25.5603 14.8059 25.0848 14.4021 24.5193 14.1806C23.9538 13.9591 23.3306 13.9325 22.7483 14.105H22.7465ZM15.7465 2.1875V7.875C15.7465 8.10706 15.8387 8.32962 16.0028 8.49372C16.1669 8.65781 16.3894 8.75 16.6215 8.75H22.309L15.7465 2.1875Z" fill="white"/>
</svg>
