<svg width="30" height="30" viewBox="0 0 25 25" fill="none" xmlns="http://www.w3.org/2000/svg">
<path d="M2.39062 13.2365L11.7427 22.6115C12.1479 23.0177 12.8104 23.0188 13.2156 22.6135L22.6125 13.2385C22.7095 13.1418 22.7865 13.0268 22.839 12.9003C22.8915 12.7737 22.9185 12.6381 22.9185 12.501C22.9185 12.364 22.8915 12.2284 22.839 12.1018C22.7865 11.9753 22.7095 11.8603 22.6125 11.7635L13.2156 2.38855C13.1188 2.29186 13.0039 2.21522 12.8775 2.16299C12.751 2.11076 12.6155 2.08398 12.4787 2.08417C12.3419 2.08436 12.2065 2.11153 12.0802 2.16411C11.9539 2.2167 11.8392 2.29367 11.7427 2.39063L2.39062 11.7656C2.29399 11.8622 2.21734 11.9768 2.16504 12.103C2.11274 12.2292 2.08582 12.3644 2.08582 12.501C2.08582 12.6376 2.11274 12.7729 2.16504 12.8991C2.21734 13.0253 2.29399 13.1399 2.39062 13.2365V13.2365ZM9.37708 10.4177H14.5854V8.33438L17.7104 11.4594L14.5854 14.5844V12.501H11.4604V16.6677H9.37708V10.4177Z" fill="#102661"/>
</svg>