<svg width="15" height="15" viewBox="0 0 15 15" fill="none" xmlns="http://www.w3.org/2000/svg">
<path d="M7.04004 11.625C7.13672 11.7744 7.30664 11.874 7.5 11.874C7.69336 11.874 7.86328 11.7744 7.96289 11.625L11.1914 6.63867C11.625 5.96777 11.877 5.22949 11.877 4.37402C11.874 1.90137 9.93164 0 7.5 0C5.06836 0 3.12598 1.90137 3.12598 4.37402C3.12598 5.22949 3.37793 5.96777 3.81152 6.63867L7.04004 11.625ZM7.5 1.875C8.87988 1.875 9.99902 2.99414 9.99902 4.37402C9.99902 5.75391 8.87988 6.87305 7.5 6.87305C6.12012 6.87305 5.00098 5.75391 5.00098 4.37402C5.00098 2.99414 6.12012 1.875 7.5 1.875ZM10.7051 9.47754L7.5 13.749L4.29492 9.47754C3.19922 10.0518 2.49902 10.9102 2.49902 11.874C2.49902 13.5996 4.7373 15 7.5 15C10.2627 15 12.501 13.5996 12.501 11.874C12.501 10.9102 11.8008 10.0518 10.7051 9.47754Z" fill="black" fill-opacity="0.43"/>
</svg>
