<svg width="39" height="39" viewBox="0 0 39 39" fill="none" xmlns="http://www.w3.org/2000/svg">
<path d="M32.5 14.625C31.0853 14.6249 29.6952 14.255 28.4676 13.5519C27.24 12.8488 26.2175 11.8369 25.5017 10.6167H12.1875V8.66666C12.1875 8.37934 12.3016 8.10379 12.5048 7.90063C12.708 7.69746 12.9835 7.58333 13.2708 7.58333H16.9975V6.84666C16.9975 6.18152 17.2617 5.54362 17.732 5.0733C18.2024 4.60297 18.8403 4.33874 19.5054 4.33874C20.1706 4.33874 20.8085 4.60297 21.2788 5.0733C21.7491 5.54362 22.0133 6.18152 22.0133 6.84666V7.58333H24.4617C24.4123 7.2243 24.387 6.86239 24.3858 6.49999C24.3881 6.11927 24.4171 5.73917 24.4725 5.36249H23.9308C23.619 4.43579 23.0242 3.63034 22.2302 3.05975C21.4362 2.48916 20.4832 2.18222 19.5054 2.18222C18.5277 2.18222 17.5746 2.48916 16.7806 3.05975C15.9866 3.63034 15.3918 4.43579 15.08 5.36249H7.58333C7.31803 5.32412 7.0476 5.34245 6.7899 5.41627C6.5322 5.49008 6.29308 5.61771 6.08833 5.79073C5.88357 5.96374 5.71784 6.17821 5.60206 6.41999C5.48628 6.66176 5.42309 6.92534 5.41666 7.19333V34.9483C5.41808 35.1902 5.46712 35.4294 5.56099 35.6523C5.65486 35.8752 5.79171 36.0774 5.96373 36.2474C6.13575 36.4174 6.33957 36.5519 6.56356 36.6431C6.78755 36.7344 7.02731 36.7806 7.26916 36.7792H31.7308C31.9727 36.7806 32.2124 36.7344 32.4364 36.6431C32.6604 36.5519 32.8642 36.4174 33.0363 36.2474C33.2083 36.0774 33.3451 35.8752 33.439 35.6523C33.5329 35.4294 33.5819 35.1902 33.5833 34.9483V14.5492C33.2243 14.5985 32.8624 14.6238 32.5 14.625ZM27.9175 18.6442L18.0375 28.5242L12.3608 22.8475C12.0735 22.5602 11.9121 22.1705 11.9121 21.7642C11.9121 21.3578 12.0735 20.9681 12.3608 20.6808C12.6481 20.3935 13.0378 20.2321 13.4442 20.2321C13.8505 20.2321 14.2402 20.3935 14.5275 20.6808L18.0592 24.2125L25.7942 16.4775C25.9364 16.3352 26.1053 16.2224 26.2912 16.1454C26.4771 16.0684 26.6763 16.0288 26.8775 16.0288C27.0787 16.0288 27.2779 16.0684 27.4638 16.1454C27.6497 16.2224 27.8186 16.3352 27.9608 16.4775C28.1031 16.6198 28.2159 16.7887 28.2929 16.9745C28.3699 17.1604 28.4096 17.3596 28.4096 17.5608C28.4096 17.762 28.3699 17.9612 28.2929 18.1471C28.2159 18.333 28.1031 18.5019 27.9608 18.6442H27.9175Z" fill="white"/>
<path d="M32.5 11.9167C35.4915 11.9167 37.9167 9.49155 37.9167 6.50001C37.9167 3.50847 35.4915 1.08334 32.5 1.08334C29.5085 1.08334 27.0833 3.50847 27.0833 6.50001C27.0833 9.49155 29.5085 11.9167 32.5 11.9167Z" fill="white"/>
</svg>
