<svg width="26" height="26" viewBox="0 0 26 26" fill="none" xmlns="http://www.w3.org/2000/svg">
<path d="M13.8125 2.4375C13.8125 1.79103 14.0693 1.17105 14.5264 0.713927C14.9835 0.256807 15.6035 0 16.25 0L22.75 0C23.612 0 24.4386 0.34241 25.0481 0.951903C25.6576 1.5614 26 2.38805 26 3.25V22.75C26 23.612 25.6576 24.4386 25.0481 25.0481C24.4386 25.6576 23.612 26 22.75 26H3.25C2.38805 26 1.5614 25.6576 0.951903 25.0481C0.34241 24.4386 0 23.612 0 22.75V3.25C0 2.38805 0.34241 1.5614 0.951903 0.951903C1.5614 0.34241 2.38805 0 3.25 0L13 0C12.4897 0.67925 12.1875 1.52262 12.1875 2.4375V15.1011L7.88775 10.7997C7.81221 10.7242 7.72253 10.6643 7.62382 10.6234C7.52512 10.5825 7.41933 10.5615 7.3125 10.5615C7.20567 10.5615 7.09988 10.5825 7.00118 10.6234C6.90247 10.6643 6.81279 10.7242 6.73725 10.7997C6.66171 10.8753 6.60178 10.965 6.5609 11.0637C6.52002 11.1624 6.49897 11.2682 6.49897 11.375C6.49897 11.4818 6.52002 11.5876 6.5609 11.6863C6.60178 11.785 6.66171 11.8747 6.73725 11.9503L12.4247 17.6378C12.5002 17.7134 12.5899 17.7734 12.6886 17.8144C12.7873 17.8554 12.8931 17.8765 13 17.8765C13.1069 17.8765 13.2127 17.8554 13.3114 17.8144C13.4101 17.7734 13.4998 17.7134 13.5753 17.6378L19.2628 11.9503C19.4153 11.7977 19.501 11.5908 19.501 11.375C19.501 11.1592 19.4153 10.9523 19.2628 10.7997C19.1102 10.6472 18.9033 10.5615 18.6875 10.5615C18.4717 10.5615 18.2648 10.6472 18.1122 10.7997L13.8125 15.1011V2.4375Z" fill="#102661"/>
</svg>
