<svg width="39" height="39" viewBox="0 0 39 39" fill="none" xmlns="http://www.w3.org/2000/svg">
<path d="M23.251 3.21888C22.0251 2.94516 20.7741 2.79998 19.5181 2.78571C18.2311 2.79963 16.9789 2.94588 15.7518 3.21888C15.4901 3.27742 15.2533 3.41631 15.0745 3.61611C14.8957 3.81591 14.7838 4.06663 14.7545 4.33317L14.4634 6.94756C14.4217 7.31632 14.2942 7.67019 14.0912 7.98084C13.8882 8.2915 13.6153 8.55033 13.2943 8.7366C12.9733 8.92288 12.6132 9.03143 12.2428 9.05358C11.8723 9.07572 11.5018 9.01084 11.161 8.86413L8.76525 7.80974C8.52208 7.70269 8.25164 7.67387 7.99137 7.72727C7.7311 7.78067 7.49387 7.91365 7.3125 8.10781C5.57986 9.96179 4.28981 12.1842 3.53925 14.6083C3.46017 14.8635 3.46248 15.1369 3.54584 15.3908C3.6292 15.6446 3.78948 15.8662 4.00446 16.0248L6.13135 17.5918C6.43052 17.8119 6.67373 18.0994 6.84135 18.4308C7.00897 18.7623 7.0963 19.1285 7.0963 19.5C7.0963 19.8714 7.00897 20.2377 6.84135 20.5692C6.67373 20.9006 6.43052 21.188 6.13135 21.4082L4.00446 22.9793C3.78976 23.1379 3.62965 23.3592 3.5463 23.6128C3.46296 23.8663 3.46049 24.1395 3.53925 24.3945C4.28826 26.8207 5.57737 29.0455 7.30971 30.9019C7.49091 31.0963 7.72807 31.2296 7.98835 31.2832C8.24863 31.3369 8.51915 31.3083 8.76246 31.2014L11.1693 30.1442C11.5082 29.9962 11.8771 29.93 12.2463 29.9508C12.6156 29.9716 12.9747 30.0789 13.2948 30.264C13.9439 30.6401 14.3771 31.3017 14.462 32.0482L14.7517 34.6626C14.7808 34.9256 14.8904 35.1732 15.0653 35.3716C15.2403 35.57 15.4723 35.7096 15.7295 35.7713C18.208 36.3623 20.7906 36.3623 23.2691 35.7713C23.5263 35.7096 23.7583 35.57 23.9333 35.3716C24.1082 35.1732 24.2178 34.9256 24.2469 34.6626L24.5366 32.0441C24.5759 31.6751 24.7017 31.3206 24.9038 31.0094C25.1059 30.6982 25.3787 30.4391 25.6998 30.2531C26.0209 30.0672 26.3814 29.9597 26.7519 29.9393C27.1224 29.9189 27.4925 29.9863 27.8321 30.1358L30.2375 31.193C30.4808 31.2999 30.7514 31.3285 31.0116 31.2749C31.2719 31.2212 31.5091 31.088 31.6903 30.8936C33.4217 29.0391 34.7107 26.8168 35.4607 24.3931C35.5398 24.1379 35.5375 23.8644 35.4542 23.6106C35.3708 23.3568 35.2105 23.1352 34.9955 22.9766L32.8714 21.4082C32.5722 21.1882 32.3289 20.9008 32.1611 20.5694C31.9934 20.238 31.9059 19.8718 31.9058 19.5003C31.9056 19.1289 31.9928 18.7626 32.1603 18.4311C32.3278 18.0996 32.5709 17.812 32.87 17.5918L34.9941 16.022C35.2086 15.8633 35.3684 15.6419 35.4515 15.3884C35.5346 15.1348 35.5369 14.8617 35.458 14.6069C34.7079 12.1829 33.4183 9.96048 31.6861 8.10642C31.5047 7.91226 31.2675 7.77928 31.0072 7.72587C30.747 7.67247 30.4765 7.70129 30.2334 7.80835L27.8376 8.86274C27.5395 8.99545 27.2168 9.06379 26.8905 9.06331C26.307 9.06224 25.7444 8.8459 25.3106 8.45574C24.8767 8.06558 24.6021 7.52905 24.5394 6.94896L24.2469 4.33178C24.2177 4.06579 24.1062 3.81555 23.9279 3.61603C23.7496 3.4165 23.5134 3.27766 23.2524 3.21888H23.251ZM19.5 25.0714C18.0224 25.0714 16.6052 24.4844 15.5604 23.4396C14.5156 22.3947 13.9286 20.9776 13.9286 19.5C13.9286 18.0224 14.5156 16.6052 15.5604 15.5604C16.6052 14.5156 18.0224 13.9286 19.5 13.9286C20.9776 13.9286 22.3947 14.5156 23.4396 15.5604C24.4844 16.6052 25.0714 18.0224 25.0714 19.5C25.0714 20.9776 24.4844 22.3947 23.4396 23.4396C22.3947 24.4844 20.9776 25.0714 19.5 25.0714Z" fill="white"/>
</svg>
